<?xml version="1.0" standalone="no"?>
<!DOCTYPE svg PUBLIC "-//W3C//DTD SVG 20010904//EN"
 "http://www.w3.org/TR/2001/REC-SVG-20010904/DTD/svg10.dtd">
<svg version="1.0" xmlns="http://www.w3.org/2000/svg"
 width="700.000000pt" height="700.000000pt" viewBox="0 0 700.000000 700.000000"
 preserveAspectRatio="xMidYMid meet">
<metadata>
Created by potrace 1.14, written by Peter Selinger 2001-2017
</metadata>
<g transform="translate(0.000000,700.000000) scale(0.100000,-0.100000)"
fill="#000000" stroke="none">
<path d="M2429 6996 c-2 -2 -26 -7 -52 -10 -242 -33 -488 -238 -580 -486 -39
-106 -46 -176 -47 -494 0 -171 -2 -312 -4 -314 -2 -2 -231 -5 -508 -6 -503 -3
-503 -3 -588 -28 -162 -48 -280 -116 -393 -231 -126 -126 -202 -268 -238 -440
-17 -85 -19 -146 -19 -789 l0 -698 3500 0 3500 0 0 698 c-1 764 -2 780 -61
934 -83 216 -287 418 -497 496 -152 55 -197 59 -710 60 -260 0 -475 2 -477 4
-2 2 -5 147 -6 321 -1 335 -6 383 -52 497 -98 245 -289 407 -562 477 -31 7
-2198 17 -2206 9z m2112 -669 c50 -33 52 -46 53 -352 l1 -285 -30 -1 c-45 -1
-2063 -1 -2115 0 l-45 1 1 289 c2 278 2 291 23 319 13 19 35 33 58 39 20 4
485 8 1032 8 920 -1 998 -2 1022 -18z"/>
<path d="M17 3062 c-16 -3 -17 -66 -17 -920 1 -571 5 -936 11 -967 6 -27 12
-60 15 -73 21 -105 90 -240 174 -341 64 -78 61 -75 125 -127 131 -106 295
-174 457 -190 95 -9 5376 -9 5448 0 362 46 647 300 747 666 17 60 18 136 18
1009 l0 943 -1308 2 c-719 0 -1308 -1 -1308 -4 -1 -3 -2 -111 -3 -240 -2 -217
-9 -310 -24 -335 -4 -5 -7 -16 -8 -22 -4 -23 -64 -114 -98 -148 -56 -55 -149
-105 -223 -120 -15 -3 -253 -6 -528 -6 -485 -1 -502 0 -563 20 -141 48 -237
143 -283 279 -21 62 -23 86 -23 319 -1 139 -3 253 -6 254 -18 2 -2590 3 -2603
1z"/>
</g>
</svg>
